<mxfile host="Electron" modified="2024-12-14T01:48:43.647Z" agent="Mozilla/5.0 (Windows NT 10.0; Win64; x64) AppleWebKit/537.36 (KHTML, like Gecko) draw.io/24.6.4 Chrome/124.0.6367.207 Electron/30.0.6 Safari/537.36" etag="Nw99kXkGv2W03xr3VdDa" version="24.6.4" type="device">
  <diagram name="Page-1" id="Sr7otVtBpnd4oIqiyKPb">
    <mxGraphModel dx="547" dy="879" grid="1" gridSize="10" guides="1" tooltips="1" connect="1" arrows="1" fold="1" page="1" pageScale="1" pageWidth="850" pageHeight="1100" math="0" shadow="0">
      <root>
        <mxCell id="0" />
        <mxCell id="1" parent="0" />
        <mxCell id="3IJOtnL_M_uztkoWgQJS-59" value="" style="rounded=0;whiteSpace=wrap;html=1;strokeColor=none;" vertex="1" parent="1">
          <mxGeometry x="495" y="520" width="290" height="40" as="geometry" />
        </mxCell>
        <mxCell id="3IJOtnL_M_uztkoWgQJS-41" style="edgeStyle=orthogonalEdgeStyle;rounded=0;orthogonalLoop=1;jettySize=auto;html=1;" edge="1" parent="1" source="3IJOtnL_M_uztkoWgQJS-1" target="3IJOtnL_M_uztkoWgQJS-9">
          <mxGeometry relative="1" as="geometry">
            <Array as="points">
              <mxPoint x="245" y="550" />
              <mxPoint x="245" y="550" />
            </Array>
          </mxGeometry>
        </mxCell>
        <mxCell id="3IJOtnL_M_uztkoWgQJS-84" style="edgeStyle=orthogonalEdgeStyle;rounded=0;orthogonalLoop=1;jettySize=auto;html=1;" edge="1" parent="1" source="3IJOtnL_M_uztkoWgQJS-1" target="3IJOtnL_M_uztkoWgQJS-81">
          <mxGeometry relative="1" as="geometry">
            <Array as="points">
              <mxPoint x="130" y="840" />
            </Array>
          </mxGeometry>
        </mxCell>
        <mxCell id="3IJOtnL_M_uztkoWgQJS-88" style="edgeStyle=orthogonalEdgeStyle;rounded=0;orthogonalLoop=1;jettySize=auto;html=1;" edge="1" parent="1" source="3IJOtnL_M_uztkoWgQJS-1" target="3IJOtnL_M_uztkoWgQJS-81">
          <mxGeometry relative="1" as="geometry">
            <Array as="points">
              <mxPoint x="90" y="870" />
            </Array>
          </mxGeometry>
        </mxCell>
        <mxCell id="3IJOtnL_M_uztkoWgQJS-90" value="Filter columns" style="edgeLabel;html=1;align=center;verticalAlign=middle;resizable=0;points=[];fontSize=12;" vertex="1" connectable="0" parent="3IJOtnL_M_uztkoWgQJS-88">
          <mxGeometry x="0.4332" y="1" relative="1" as="geometry">
            <mxPoint x="26" y="-9" as="offset" />
          </mxGeometry>
        </mxCell>
        <mxCell id="3IJOtnL_M_uztkoWgQJS-104" style="edgeStyle=orthogonalEdgeStyle;rounded=0;orthogonalLoop=1;jettySize=auto;html=1;" edge="1" parent="1" source="3IJOtnL_M_uztkoWgQJS-1" target="3IJOtnL_M_uztkoWgQJS-19">
          <mxGeometry relative="1" as="geometry">
            <Array as="points">
              <mxPoint x="170" y="660" />
              <mxPoint x="360" y="660" />
            </Array>
          </mxGeometry>
        </mxCell>
        <mxCell id="3IJOtnL_M_uztkoWgQJS-1" value="&lt;div&gt;Controller&lt;/div&gt;(User)" style="rounded=0;whiteSpace=wrap;html=1;" vertex="1" parent="1">
          <mxGeometry x="65" y="490" width="130" height="100" as="geometry" />
        </mxCell>
        <mxCell id="3IJOtnL_M_uztkoWgQJS-14" value="" style="group" vertex="1" connectable="0" parent="1">
          <mxGeometry x="295" y="470" width="130" height="140" as="geometry" />
        </mxCell>
        <mxCell id="3IJOtnL_M_uztkoWgQJS-9" value="Fill model" style="rounded=1;whiteSpace=wrap;html=1;absoluteArcSize=1;arcSize=14;strokeWidth=2;" vertex="1" parent="3IJOtnL_M_uztkoWgQJS-14">
          <mxGeometry width="130" height="140" as="geometry" />
        </mxCell>
        <mxCell id="3IJOtnL_M_uztkoWgQJS-10" value="1.0" style="text;html=1;align=center;verticalAlign=middle;whiteSpace=wrap;rounded=0;" vertex="1" parent="3IJOtnL_M_uztkoWgQJS-14">
          <mxGeometry x="35" width="60" height="30" as="geometry" />
        </mxCell>
        <mxCell id="3IJOtnL_M_uztkoWgQJS-13" value="" style="endArrow=none;html=1;rounded=0;elbow=vertical;" edge="1" parent="3IJOtnL_M_uztkoWgQJS-14">
          <mxGeometry width="50" height="50" relative="1" as="geometry">
            <mxPoint y="30" as="sourcePoint" />
            <mxPoint x="130" y="30" as="targetPoint" />
            <Array as="points">
              <mxPoint x="50" y="30" />
            </Array>
          </mxGeometry>
        </mxCell>
        <mxCell id="3IJOtnL_M_uztkoWgQJS-27" value="Context Digram (DFD-0&amp;nbsp;)" style="shape=umlFrame;whiteSpace=wrap;html=1;pointerEvents=0;width=220;height=40;" vertex="1" parent="1">
          <mxGeometry x="40" y="40" width="770" height="260" as="geometry" />
        </mxCell>
        <mxCell id="3IJOtnL_M_uztkoWgQJS-29" value="" style="group" vertex="1" connectable="0" parent="1">
          <mxGeometry x="400" y="120" width="130" height="140" as="geometry" />
        </mxCell>
        <mxCell id="3IJOtnL_M_uztkoWgQJS-30" value="UnifiedSearchApp" style="rounded=1;whiteSpace=wrap;html=1;absoluteArcSize=1;arcSize=14;strokeWidth=2;" vertex="1" parent="3IJOtnL_M_uztkoWgQJS-29">
          <mxGeometry width="130" height="140" as="geometry" />
        </mxCell>
        <mxCell id="3IJOtnL_M_uztkoWgQJS-31" value="0" style="text;html=1;align=center;verticalAlign=middle;whiteSpace=wrap;rounded=0;" vertex="1" parent="3IJOtnL_M_uztkoWgQJS-29">
          <mxGeometry x="35" width="60" height="30" as="geometry" />
        </mxCell>
        <mxCell id="3IJOtnL_M_uztkoWgQJS-32" value="" style="endArrow=none;html=1;rounded=0;elbow=vertical;" edge="1" parent="3IJOtnL_M_uztkoWgQJS-29">
          <mxGeometry width="50" height="50" relative="1" as="geometry">
            <mxPoint y="30" as="sourcePoint" />
            <mxPoint x="130" y="30" as="targetPoint" />
            <Array as="points">
              <mxPoint x="50" y="30" />
            </Array>
          </mxGeometry>
        </mxCell>
        <mxCell id="3IJOtnL_M_uztkoWgQJS-33" value="User" style="rounded=0;whiteSpace=wrap;html=1;" vertex="1" parent="1">
          <mxGeometry x="90" y="140" width="130" height="100" as="geometry" />
        </mxCell>
        <mxCell id="3IJOtnL_M_uztkoWgQJS-52" value="" style="group" vertex="1" connectable="0" parent="1">
          <mxGeometry x="274" y="166" width="80" height="30" as="geometry" />
        </mxCell>
        <mxCell id="3IJOtnL_M_uztkoWgQJS-47" style="edgeStyle=orthogonalEdgeStyle;rounded=0;orthogonalLoop=1;jettySize=auto;html=1;" edge="1" parent="3IJOtnL_M_uztkoWgQJS-52" source="3IJOtnL_M_uztkoWgQJS-30" target="3IJOtnL_M_uztkoWgQJS-33">
          <mxGeometry relative="1" as="geometry" />
        </mxCell>
        <mxCell id="3IJOtnL_M_uztkoWgQJS-50" value="View data" style="text;html=1;align=center;verticalAlign=middle;resizable=0;points=[];autosize=1;strokeColor=none;fillColor=none;" vertex="1" parent="3IJOtnL_M_uztkoWgQJS-52">
          <mxGeometry width="80" height="30" as="geometry" />
        </mxCell>
        <mxCell id="3IJOtnL_M_uztkoWgQJS-53" value="" style="group" vertex="1" connectable="0" parent="1">
          <mxGeometry x="264" y="201" width="100" height="30" as="geometry" />
        </mxCell>
        <mxCell id="3IJOtnL_M_uztkoWgQJS-35" style="edgeStyle=orthogonalEdgeStyle;rounded=0;orthogonalLoop=1;jettySize=auto;html=1;exitX=0;exitY=0.75;exitDx=0;exitDy=0;entryX=1.003;entryY=0.857;entryDx=0;entryDy=0;entryPerimeter=0;" edge="1" parent="3IJOtnL_M_uztkoWgQJS-53" source="3IJOtnL_M_uztkoWgQJS-30" target="3IJOtnL_M_uztkoWgQJS-33">
          <mxGeometry relative="1" as="geometry" />
        </mxCell>
        <mxCell id="3IJOtnL_M_uztkoWgQJS-37" value="export .csv file" style="text;html=1;align=center;verticalAlign=middle;resizable=0;points=[];autosize=1;strokeColor=none;fillColor=none;" vertex="1" parent="3IJOtnL_M_uztkoWgQJS-53">
          <mxGeometry width="100" height="30" as="geometry" />
        </mxCell>
        <mxCell id="3IJOtnL_M_uztkoWgQJS-54" value="" style="group" vertex="1" connectable="0" parent="1">
          <mxGeometry x="264" y="126" width="100" height="30" as="geometry" />
        </mxCell>
        <mxCell id="3IJOtnL_M_uztkoWgQJS-46" style="edgeStyle=orthogonalEdgeStyle;rounded=0;orthogonalLoop=1;jettySize=auto;html=1;" edge="1" parent="3IJOtnL_M_uztkoWgQJS-54" source="3IJOtnL_M_uztkoWgQJS-33" target="3IJOtnL_M_uztkoWgQJS-30">
          <mxGeometry relative="1" as="geometry">
            <Array as="points">
              <mxPoint x="36" y="24" />
              <mxPoint x="36" y="24" />
            </Array>
          </mxGeometry>
        </mxCell>
        <mxCell id="3IJOtnL_M_uztkoWgQJS-36" value="import .csv file" style="text;html=1;align=center;verticalAlign=middle;resizable=0;points=[];autosize=1;strokeColor=none;fillColor=none;" vertex="1" parent="3IJOtnL_M_uztkoWgQJS-54">
          <mxGeometry width="100" height="30" as="geometry" />
        </mxCell>
        <mxCell id="3IJOtnL_M_uztkoWgQJS-56" value="Provide File path" style="text;html=1;align=center;verticalAlign=middle;resizable=0;points=[];autosize=1;strokeColor=none;fillColor=none;" vertex="1" parent="1">
          <mxGeometry x="190" y="528" width="110" height="30" as="geometry" />
        </mxCell>
        <mxCell id="3IJOtnL_M_uztkoWgQJS-57" value="" style="group" vertex="1" connectable="0" parent="1">
          <mxGeometry x="215" y="690" width="260" height="40" as="geometry" />
        </mxCell>
        <mxCell id="3IJOtnL_M_uztkoWgQJS-21" value="" style="rounded=0;whiteSpace=wrap;html=1;strokeColor=none;" vertex="1" parent="3IJOtnL_M_uztkoWgQJS-57">
          <mxGeometry width="260" height="40" as="geometry" />
        </mxCell>
        <mxCell id="3IJOtnL_M_uztkoWgQJS-18" value="" style="strokeWidth=2;html=1;shape=mxgraph.flowchart.annotation_1;align=left;pointerEvents=1;" vertex="1" parent="3IJOtnL_M_uztkoWgQJS-57">
          <mxGeometry width="30" height="40" as="geometry" />
        </mxCell>
        <mxCell id="3IJOtnL_M_uztkoWgQJS-19" value="&amp;nbsp;UnifiedSearchApp.table: QTableWidget" style="strokeWidth=2;html=1;shape=mxgraph.flowchart.annotation_1;align=left;pointerEvents=1;" vertex="1" parent="3IJOtnL_M_uztkoWgQJS-57">
          <mxGeometry x="30" width="230" height="40" as="geometry" />
        </mxCell>
        <mxCell id="3IJOtnL_M_uztkoWgQJS-62" style="edgeStyle=orthogonalEdgeStyle;rounded=0;orthogonalLoop=1;jettySize=auto;html=1;" edge="1" parent="1" source="3IJOtnL_M_uztkoWgQJS-9" target="3IJOtnL_M_uztkoWgQJS-60">
          <mxGeometry relative="1" as="geometry" />
        </mxCell>
        <mxCell id="3IJOtnL_M_uztkoWgQJS-60" value="" style="strokeWidth=2;html=1;shape=mxgraph.flowchart.annotation_1;align=left;pointerEvents=1;" vertex="1" parent="1">
          <mxGeometry x="495" y="520" width="30" height="40" as="geometry" />
        </mxCell>
        <mxCell id="3IJOtnL_M_uztkoWgQJS-28" value="Dataflow Digram&lt;div&gt;PyQt MVC&amp;nbsp; Architecture&lt;/div&gt;" style="shape=umlFrame;whiteSpace=wrap;html=1;pointerEvents=0;width=170;height=40;" vertex="1" parent="1">
          <mxGeometry x="40" y="360" width="770" height="670" as="geometry" />
        </mxCell>
        <mxCell id="3IJOtnL_M_uztkoWgQJS-63" value="Populate" style="text;html=1;align=center;verticalAlign=middle;resizable=0;points=[];autosize=1;strokeColor=none;fillColor=none;" vertex="1" parent="1">
          <mxGeometry x="421" y="516" width="70" height="30" as="geometry" />
        </mxCell>
        <mxCell id="3IJOtnL_M_uztkoWgQJS-75" style="edgeStyle=orthogonalEdgeStyle;rounded=0;orthogonalLoop=1;jettySize=auto;html=1;entryX=0.5;entryY=0;entryDx=0;entryDy=0;" edge="1" parent="1" source="3IJOtnL_M_uztkoWgQJS-61" target="3IJOtnL_M_uztkoWgQJS-70">
          <mxGeometry relative="1" as="geometry" />
        </mxCell>
        <mxCell id="3IJOtnL_M_uztkoWgQJS-61" value="&amp;nbsp;UnifiedSearchApp.model: QAbstractModelView" style="strokeWidth=2;html=1;shape=mxgraph.flowchart.annotation_1;align=left;pointerEvents=1;" vertex="1" parent="1">
          <mxGeometry x="525" y="520" width="260" height="40" as="geometry" />
        </mxCell>
        <mxCell id="3IJOtnL_M_uztkoWgQJS-69" value="" style="group" vertex="1" connectable="0" parent="1">
          <mxGeometry x="590" y="640" width="130" height="140" as="geometry" />
        </mxCell>
        <mxCell id="3IJOtnL_M_uztkoWgQJS-101" style="edgeStyle=orthogonalEdgeStyle;rounded=0;orthogonalLoop=1;jettySize=auto;html=1;" edge="1" parent="3IJOtnL_M_uztkoWgQJS-69" source="3IJOtnL_M_uztkoWgQJS-70">
          <mxGeometry relative="1" as="geometry">
            <mxPoint x="65" y="190" as="targetPoint" />
          </mxGeometry>
        </mxCell>
        <mxCell id="3IJOtnL_M_uztkoWgQJS-70" value="Render to table" style="rounded=1;whiteSpace=wrap;html=1;absoluteArcSize=1;arcSize=14;strokeWidth=2;" vertex="1" parent="3IJOtnL_M_uztkoWgQJS-69">
          <mxGeometry y="-10" width="130" height="140" as="geometry" />
        </mxCell>
        <mxCell id="3IJOtnL_M_uztkoWgQJS-71" value="2.0" style="text;html=1;align=center;verticalAlign=middle;whiteSpace=wrap;rounded=0;" vertex="1" parent="3IJOtnL_M_uztkoWgQJS-69">
          <mxGeometry x="35" width="60" height="30" as="geometry" />
        </mxCell>
        <mxCell id="3IJOtnL_M_uztkoWgQJS-72" value="" style="endArrow=none;html=1;rounded=0;elbow=vertical;" edge="1" parent="3IJOtnL_M_uztkoWgQJS-69">
          <mxGeometry width="50" height="50" relative="1" as="geometry">
            <mxPoint y="30" as="sourcePoint" />
            <mxPoint x="130" y="30" as="targetPoint" />
            <Array as="points">
              <mxPoint x="50" y="30" />
            </Array>
          </mxGeometry>
        </mxCell>
        <mxCell id="3IJOtnL_M_uztkoWgQJS-76" value="Push content changes" style="text;html=1;align=center;verticalAlign=middle;resizable=0;points=[];autosize=1;strokeColor=none;fillColor=none;" vertex="1" parent="1">
          <mxGeometry x="585" y="580" width="140" height="30" as="geometry" />
        </mxCell>
        <mxCell id="3IJOtnL_M_uztkoWgQJS-77" style="edgeStyle=orthogonalEdgeStyle;rounded=0;orthogonalLoop=1;jettySize=auto;html=1;" edge="1" parent="1" source="3IJOtnL_M_uztkoWgQJS-70" target="3IJOtnL_M_uztkoWgQJS-19">
          <mxGeometry relative="1" as="geometry">
            <Array as="points">
              <mxPoint x="495" y="710" />
              <mxPoint x="495" y="710" />
            </Array>
          </mxGeometry>
        </mxCell>
        <mxCell id="3IJOtnL_M_uztkoWgQJS-78" value="Set items" style="edgeLabel;html=1;align=center;verticalAlign=middle;resizable=0;points=[];" vertex="1" connectable="0" parent="3IJOtnL_M_uztkoWgQJS-77">
          <mxGeometry x="0.1864" y="3" relative="1" as="geometry">
            <mxPoint x="3" y="-13" as="offset" />
          </mxGeometry>
        </mxCell>
        <mxCell id="3IJOtnL_M_uztkoWgQJS-80" value="" style="group" vertex="1" connectable="0" parent="1">
          <mxGeometry x="295" y="790" width="130" height="140" as="geometry" />
        </mxCell>
        <mxCell id="3IJOtnL_M_uztkoWgQJS-81" value="Search and filter&amp;nbsp;table" style="rounded=1;whiteSpace=wrap;html=1;absoluteArcSize=1;arcSize=14;strokeWidth=2;" vertex="1" parent="3IJOtnL_M_uztkoWgQJS-80">
          <mxGeometry width="130" height="140" as="geometry" />
        </mxCell>
        <mxCell id="3IJOtnL_M_uztkoWgQJS-82" value="3.0" style="text;html=1;align=center;verticalAlign=middle;whiteSpace=wrap;rounded=0;" vertex="1" parent="3IJOtnL_M_uztkoWgQJS-80">
          <mxGeometry x="35" width="60" height="30" as="geometry" />
        </mxCell>
        <mxCell id="3IJOtnL_M_uztkoWgQJS-83" value="" style="endArrow=none;html=1;rounded=0;elbow=vertical;" edge="1" parent="3IJOtnL_M_uztkoWgQJS-80">
          <mxGeometry width="50" height="50" relative="1" as="geometry">
            <mxPoint y="30" as="sourcePoint" />
            <mxPoint x="130" y="30" as="targetPoint" />
            <Array as="points">
              <mxPoint x="50" y="30" />
            </Array>
          </mxGeometry>
        </mxCell>
        <mxCell id="3IJOtnL_M_uztkoWgQJS-89" value="Provide keywords" style="text;html=1;align=center;verticalAlign=middle;resizable=0;points=[];autosize=1;strokeColor=none;fillColor=none;" vertex="1" parent="1">
          <mxGeometry x="173" y="817" width="120" height="30" as="geometry" />
        </mxCell>
        <mxCell id="3IJOtnL_M_uztkoWgQJS-91" value="View Contents" style="text;html=1;align=center;verticalAlign=middle;resizable=0;points=[];autosize=1;strokeColor=none;fillColor=none;" vertex="1" parent="1">
          <mxGeometry x="213" y="636" width="100" height="30" as="geometry" />
        </mxCell>
        <mxCell id="3IJOtnL_M_uztkoWgQJS-92" style="edgeStyle=orthogonalEdgeStyle;rounded=0;orthogonalLoop=1;jettySize=auto;html=1;" edge="1" parent="1" source="3IJOtnL_M_uztkoWgQJS-19" target="3IJOtnL_M_uztkoWgQJS-82">
          <mxGeometry relative="1" as="geometry" />
        </mxCell>
        <mxCell id="3IJOtnL_M_uztkoWgQJS-93" value="Provide context" style="edgeLabel;html=1;align=center;verticalAlign=middle;resizable=0;points=[];" vertex="1" connectable="0" parent="3IJOtnL_M_uztkoWgQJS-92">
          <mxGeometry x="-0.1425" relative="1" as="geometry">
            <mxPoint as="offset" />
          </mxGeometry>
        </mxCell>
        <mxCell id="3IJOtnL_M_uztkoWgQJS-100" value="" style="group" vertex="1" connectable="0" parent="1">
          <mxGeometry x="495" y="830" width="305" height="40" as="geometry" />
        </mxCell>
        <mxCell id="3IJOtnL_M_uztkoWgQJS-95" value="" style="rounded=0;whiteSpace=wrap;html=1;strokeColor=none;" vertex="1" parent="3IJOtnL_M_uztkoWgQJS-100">
          <mxGeometry width="305" height="40" as="geometry" />
        </mxCell>
        <mxCell id="3IJOtnL_M_uztkoWgQJS-96" value="" style="strokeWidth=2;html=1;shape=mxgraph.flowchart.annotation_1;align=left;pointerEvents=1;" vertex="1" parent="3IJOtnL_M_uztkoWgQJS-100">
          <mxGeometry width="30" height="40" as="geometry" />
        </mxCell>
        <mxCell id="3IJOtnL_M_uztkoWgQJS-97" value="&amp;nbsp;UnifiedSearchApp.chart_canvas: FigureCanvas" style="strokeWidth=2;html=1;shape=mxgraph.flowchart.annotation_1;align=left;pointerEvents=1;" vertex="1" parent="3IJOtnL_M_uztkoWgQJS-100">
          <mxGeometry x="30" width="275" height="40" as="geometry" />
        </mxCell>
        <mxCell id="3IJOtnL_M_uztkoWgQJS-102" value="Provide chart values" style="text;html=1;align=center;verticalAlign=middle;resizable=0;points=[];autosize=1;strokeColor=none;fillColor=none;" vertex="1" parent="1">
          <mxGeometry x="590" y="787" width="130" height="30" as="geometry" />
        </mxCell>
      </root>
    </mxGraphModel>
  </diagram>
</mxfile>
